<svg preserveAspectRatio="none" width="100%" height="100%" overflow="visible" style="display: block;" viewBox="0 0 24 24" fill="none" xmlns="http://www.w3.org/2000/svg">
<g id="SVG">
<path id="Vector" d="M16 3C17.3261 3 18.5978 3.52679 19.5355 4.46447C20.4732 5.40215 21 6.67392 21 8V16C21 17.3261 20.4732 18.5978 19.5355 19.5355C18.5978 20.4732 17.3261 21 16 21H8C6.67392 21 5.40215 20.4732 4.46447 19.5355C3.52679 18.5978 3 17.3261 3 16V8C3 6.67392 3.52679 5.40215 4.46447 4.46447C5.40215 3.52679 6.67392 3 8 3H16ZM12 8C10.9391 8 9.92172 8.42143 9.17158 9.17158C8.42143 9.92172 8 10.9391 8 12C8 13.0609 8.42143 14.0783 9.17158 14.8284C9.92172 15.5785 10.9391 16 12 16C13.0609 16 14.0783 15.5785 14.8284 14.8284C15.5785 14.0783 16 13.0609 16 12C16 10.9391 15.5785 9.92172 14.8284 9.17158C14.0783 8.42143 13.0609 8 12 8ZM12 10C12.5304 10 13.0392 10.2107 13.4142 10.5858C13.7893 10.9609 14 11.4696 14 12C14 12.5304 13.7893 13.0392 13.4142 13.4142C13.0392 13.7893 12.5304 14 12 14C11.4696 14 10.9609 13.7893 10.5858 13.4142C10.2107 13.0392 10 12.5304 10 12C10 11.4696 10.2107 10.9609 10.5858 10.5858C10.9609 10.2107 11.4696 10 12 10ZM16.5 6.5C16.2348 6.5 15.9804 6.60535 15.7928 6.79289C15.6054 6.98042 15.5 7.23479 15.5 7.5C15.5 7.76521 15.6054 8.01958 15.7928 8.20711C15.9804 8.39465 16.2348 8.5 16.5 8.5C16.7652 8.5 17.0196 8.39465 17.2072 8.20711C17.3946 8.01958 17.5 7.76521 17.5 7.5C17.5 7.23479 17.3946 6.98042 17.2072 6.79289C17.0196 6.60535 16.7652 6.5 16.5 6.5Z" fill="var(--fill-0, white)"/>
</g>
</svg>
