<svg preserveAspectRatio="none" width="100%" height="100%" overflow="visible" style="display: block;" viewBox="0 0 32 32" fill="none" xmlns="http://www.w3.org/2000/svg">
<g id="SVG">
<path id="Vector" d="M15.3667 3.06C15.4251 2.94195 15.5154 2.84258 15.6273 2.7731C15.7392 2.70362 15.8683 2.66681 16 2.66681C16.1317 2.66681 16.2608 2.70362 16.3727 2.7731C16.4846 2.84258 16.5749 2.94195 16.6333 3.06L19.7133 9.29867C19.9162 9.70929 20.2158 10.0645 20.5862 10.3339C20.9566 10.6033 21.3868 10.7788 21.84 10.8453L28.728 11.8533C28.8585 11.8722 28.9811 11.9273 29.082 12.0123C29.1828 12.0972 29.2579 12.2087 29.2987 12.3341C29.3395 12.4596 29.3444 12.5939 29.3128 12.7219C29.2812 12.85 29.2144 12.9666 29.12 13.0587L24.1387 17.9093C23.8102 18.2295 23.5644 18.6246 23.4224 19.0608C23.2805 19.497 23.2467 19.9612 23.324 20.4133L24.5 27.2667C24.523 27.3971 24.5089 27.5314 24.4593 27.6542C24.4097 27.7771 24.3266 27.8835 24.2194 27.9613C24.1122 28.0392 23.9853 28.0853 23.8532 28.0945C23.721 28.1037 23.5889 28.0756 23.472 28.0133L17.3147 24.776C16.909 24.563 16.4576 24.4517 15.9993 24.4517C15.5411 24.4517 15.0897 24.563 14.684 24.776L8.528 28.0133C8.41111 28.0752 8.2792 28.1031 8.14727 28.0937C8.01534 28.0843 7.88869 28.0381 7.78173 27.9603C7.67476 27.8825 7.59178 27.7763 7.54221 27.6536C7.49264 27.531 7.47848 27.3969 7.50133 27.2667L8.676 20.4147C8.75359 19.9623 8.71998 19.4979 8.57805 19.0614C8.43612 18.6249 8.19014 18.2295 7.86133 17.9093L2.88 13.06C2.78479 12.968 2.71732 12.8512 2.68528 12.7228C2.65324 12.5943 2.65792 12.4595 2.69877 12.3336C2.73963 12.2077 2.81502 12.0958 2.91637 12.0106C3.01772 11.9255 3.14094 11.8705 3.272 11.852L10.1587 10.8453C10.6123 10.7793 11.0432 10.6041 11.4141 10.3346C11.785 10.0652 12.0849 9.70969 12.288 9.29867L15.3667 3.06Z" stroke="var(--stroke-0, #FF6688)" stroke-width="2.66667" stroke-linecap="round" stroke-linejoin="round"/>
</g>
</svg>
